<svg width="200" height="200" viewBox="0 0 200 200" fill="none" xmlns="http://www.w3.org/2000/svg">
<path d="M120.95 195.962L120.945 60.906C120.945 60.1984 120.765 59.5032 120.423 58.8903C120.081 58.2774 119.589 57.7682 118.996 57.4141C118.404 57.06 117.731 56.8733 117.047 56.8728C116.362 56.8722 115.69 57.0579 115.096 57.411L1.95302 124.941C1.35952 125.295 0.866491 125.804 0.523675 126.417C0.18086 127.03 0.000219733 127.726 2.00298e-07 128.434C-0.000219333 129.142 0.180026 129.838 0.522461 130.451C0.864897 131.065 1.35746 131.574 1.95074 131.928L115.094 199.457C115.687 199.812 116.361 200 117.046 200C117.732 200 118.406 199.814 118.999 199.46C119.593 199.105 120.086 198.595 120.429 197.981C120.771 197.367 120.951 196.67 120.95 195.962Z" fill="#F4F6FD"/>
<path d="M79.0499 4.03845L79.0549 139.094C79.0549 139.802 79.2349 140.497 79.577 141.11C79.9191 141.723 80.4112 142.232 81.0038 142.586C81.5964 142.94 82.2689 143.127 82.9534 143.127C83.6379 143.128 84.3105 142.942 84.9036 142.589L198.047 75.059C198.64 74.7053 199.134 74.1963 199.476 73.5831C199.819 72.97 200 72.2743 200 71.5661C200 70.8579 199.82 70.1621 199.478 69.5487C199.135 68.9354 198.643 68.426 198.049 68.0719L84.9063 0.543005C84.3129 0.187787 83.6395 0.000455898 82.9538 8.31246e-07C82.2681 -0.000454235 81.5944 0.185943 81.0005 0.540374C80.4067 0.894804 79.9138 1.40472 79.5714 2.01884C79.2289 2.63296 79.049 3.32959 79.0499 4.03845Z" fill="#E7EAF7"/>
<path d="M35.3783 82.4621L65.7079 64.3582C65.8669 64.2633 65.9989 64.1269 66.0907 63.9627C66.1824 63.7984 66.2308 63.6121 66.2309 63.4224C66.231 63.2327 66.1828 63.0463 66.0912 62.8819C65.9995 62.7175 65.8677 62.581 65.7089 62.486L35.3776 44.3826C35.2186 44.2876 35.0382 44.2375 34.8545 44.2374C34.6709 44.2373 34.4904 44.2872 34.3313 44.3821C34.1723 44.477 34.0402 44.6135 33.9483 44.7779C33.8565 44.9423 33.8081 45.1288 33.8081 45.3187L33.8083 81.5251C33.8081 81.7151 33.8562 81.9018 33.9481 82.0665C34.0399 82.2311 34.172 82.3678 34.3312 82.4628C34.4904 82.5579 34.671 82.6078 34.8548 82.6077C35.0386 82.6076 35.2192 82.5574 35.3783 82.4621Z" fill="#F4F6FD"/>
<path d="M167.84 123.063L137.511 141.167C137.352 141.261 137.22 141.398 137.128 141.562C137.036 141.726 136.988 141.913 136.988 142.102C136.988 142.292 137.036 142.478 137.127 142.643C137.219 142.807 137.351 142.944 137.51 143.039L167.841 161.142C168 161.237 168.18 161.287 168.364 161.287C168.548 161.287 168.728 161.238 168.887 161.143C169.046 161.048 169.178 160.911 169.27 160.747C169.362 160.582 169.411 160.396 169.411 160.206L169.41 124C169.411 123.81 169.362 123.623 169.271 123.458C169.179 123.294 169.047 123.157 168.887 123.062C168.728 122.967 168.548 122.917 168.364 122.917C168.18 122.917 167.999 122.967 167.84 123.063Z" fill="#F4F6FD"/>
<path d="M6.83784 63.349L21.4824 54.6076C21.5591 54.5618 21.6229 54.4959 21.6672 54.4166C21.7115 54.3373 21.7349 54.2473 21.7349 54.1557C21.735 54.0641 21.7117 53.9741 21.6674 53.8948C21.6232 53.8154 21.5595 53.7495 21.4828 53.7036L6.83749 44.9625C6.76072 44.9166 6.67361 44.8924 6.58494 44.8924C6.49626 44.8923 6.40914 44.9164 6.33233 44.9622C6.25552 45.008 6.19174 45.074 6.14739 45.1533C6.10304 45.2327 6.07968 45.3228 6.07968 45.4144L6.07977 62.8966C6.07966 62.9883 6.10293 63.0785 6.14726 63.158C6.19159 63.2375 6.2554 63.3035 6.33227 63.3494C6.40914 63.3952 6.49633 63.4193 6.58509 63.4193C6.67384 63.4192 6.76103 63.395 6.83784 63.349Z" fill="#F4F6FD"/>
<path d="M196.381 142.176L181.736 150.917C181.659 150.963 181.596 151.029 181.551 151.108C181.507 151.187 181.484 151.277 181.484 151.369C181.484 151.461 181.507 151.551 181.551 151.63C181.595 151.709 181.659 151.775 181.736 151.821L196.381 160.562C196.458 160.608 196.545 160.632 196.634 160.632C196.722 160.632 196.809 160.608 196.886 160.563C196.963 160.517 197.027 160.451 197.071 160.371C197.116 160.292 197.139 160.202 197.139 160.11L197.139 142.628C197.139 142.536 197.116 142.446 197.071 142.367C197.027 142.287 196.963 142.221 196.886 142.175C196.809 142.13 196.722 142.105 196.634 142.105C196.545 142.105 196.458 142.13 196.381 142.176Z" fill="#F4F6FD"/>
</svg>
